<svg version="1.1" xmlns="http://www.w3.org/2000/svg" xmlns:xlink="http://www.w3.org/1999/xlink" width="464.7861328125" height="77"><defs/><g><text fill="#eeeeee" stroke="none" font-family="Arial" font-size="24px" font-style="normal" font-weight="normal" text-decoration="none" x="0" y="0">UNREGISTERED</text><text fill="#eeeeee" stroke="none" font-family="Arial" font-size="24px" font-style="normal" font-weight="normal" text-decoration="none" x="0" y="30">UNREGISTERED</text><text fill="#eeeeee" stroke="none" font-family="Arial" font-size="24px" font-style="normal" font-weight="normal" text-decoration="none" x="0" y="60">UNREGISTERED</text><text fill="#eeeeee" stroke="none" font-family="Arial" font-size="24px" font-style="normal" font-weight="normal" text-decoration="none" x="200" y="0">UNREGISTERED</text><text fill="#eeeeee" stroke="none" font-family="Arial" font-size="24px" font-style="normal" font-weight="normal" text-decoration="none" x="200" y="30">UNREGISTERED</text><text fill="#eeeeee" stroke="none" font-family="Arial" font-size="24px" font-style="normal" font-weight="normal" text-decoration="none" x="200" y="60">UNREGISTERED</text><text fill="#eeeeee" stroke="none" font-family="Arial" font-size="24px" font-style="normal" font-weight="normal" text-decoration="none" x="400" y="0">UNREGISTERED</text><text fill="#eeeeee" stroke="none" font-family="Arial" font-size="24px" font-style="normal" font-weight="normal" text-decoration="none" x="400" y="30">UNREGISTERED</text><text fill="#eeeeee" stroke="none" font-family="Arial" font-size="24px" font-style="normal" font-weight="normal" text-decoration="none" x="400" y="60">UNREGISTERED</text><g transform="translate(-526,-430) scale(1,1)"><rect fill="#C0C0C0" stroke="none" x="831" y="447" width="156.7861328125" height="57" opacity="0.2"/></g><g transform="translate(-526,-430) scale(1,1)"><rect fill="#ffffff" stroke="none" x="824" y="440" width="156.7861328125" height="57"/></g><g transform="translate(-526,-430) scale(1,1)"><path fill="none" stroke="#000000" d="M 824 440 L 980.7861328125 440 L 980.7861328125 497 L 824 497 L 824 440 Z Z" stroke-miterlimit="10"/></g><g transform="translate(-526,-430) scale(1,1)"><path fill="none" stroke="#000000" d="M 824 465 L 980.7861328125 465" stroke-miterlimit="10"/></g><g transform="translate(-526,-430) scale(1,1)"><path fill="none" stroke="#000000" d="M 824 475 L 980.7861328125 475" stroke-miterlimit="10"/></g><g transform="translate(-526,-430) scale(1,1)"><g><path fill="none" stroke="none"/><text fill="#000000" stroke="none" font-family="Arial" font-size="13px" font-style="italic" font-weight="bold" text-decoration="none" x="875.6630859375" y="459.5">Observer</text></g></g><g transform="translate(-526,-430) scale(1,1)"><g><path fill="none" stroke="none"/><text fill="#000000" stroke="none" font-family="Arial" font-size="13px" font-style="normal" font-weight="normal" text-decoration="none" x="829" y="492.5">+update(subject: Subject)</text></g></g><g transform="translate(-526,-430) scale(1,1)"><rect fill="#C0C0C0" stroke="none" x="543" y="447" width="116.28173828125" height="57" opacity="0.2"/></g><g transform="translate(-526,-430) scale(1,1)"><rect fill="#ffffff" stroke="none" x="536" y="440" width="116.28173828125" height="57"/></g><g transform="translate(-526,-430) scale(1,1)"><path fill="none" stroke="#000000" d="M 536 440 L 652.28173828125 440 L 652.28173828125 497 L 536 497 L 536 440 Z Z" stroke-miterlimit="10"/></g><g transform="translate(-526,-430) scale(1,1)"><path fill="none" stroke="#000000" d="M 536 465 L 652.28173828125 465" stroke-miterlimit="10"/></g><g transform="translate(-526,-430) scale(1,1)"><path fill="none" stroke="#000000" d="M 536 475 L 652.28173828125 475" stroke-miterlimit="10"/></g><g transform="translate(-526,-430) scale(1,1)"><g><path fill="none" stroke="none"/><text fill="#000000" stroke="none" font-family="Arial" font-size="13px" font-style="italic" font-weight="bold" text-decoration="none" x="572.46044921875" y="459.5">Subject</text></g></g><g transform="translate(-526,-430) scale(1,1)"><g><path fill="none" stroke="none"/><text fill="#000000" stroke="none" font-family="Arial" font-size="13px" font-style="normal" font-weight="normal" text-decoration="none" x="541" y="492.5">+notifyObservers()</text></g></g><g transform="translate(-526,-430) scale(1,1)"><path fill="none" stroke="#000000" d="M 823 468 L 653 468" stroke-miterlimit="10"/></g><g transform="translate(-526,-430) scale(1,1)"><g><path fill="none" stroke="none"/><text fill="#000000" stroke="none" font-family="Arial" font-size="13px" font-style="normal" font-weight="normal" text-decoration="none" x="706.13134765625" y="489.5">-observers</text></g></g><g transform="translate(-526,-430) scale(1,1)"><g><path fill="none" stroke="none"/><text fill="#000000" stroke="none" font-family="Arial" font-size="13px" font-style="normal" font-weight="normal" text-decoration="none" x="798.220458984375" y="461.5">*</text></g></g><g transform="translate(-526,-430) scale(1,1)"><g><path fill="none" stroke="none"/><text fill="#000000" stroke="none" font-family="Arial" font-size="13px" font-style="normal" font-weight="normal" text-decoration="none" x="670.5" y="461.5">1</text></g></g></g></svg>