<svg version="1.1" xmlns="http://www.w3.org/2000/svg" xmlns:xlink="http://www.w3.org/1999/xlink" width="416.7861328125" height="318"><defs/><g><text fill="#eeeeee" stroke="none" font-family="Arial" font-size="24px" font-style="normal" font-weight="normal" text-decoration="none" x="0" y="0">UNREGISTERED</text><text fill="#eeeeee" stroke="none" font-family="Arial" font-size="24px" font-style="normal" font-weight="normal" text-decoration="none" x="0" y="30">UNREGISTERED</text><text fill="#eeeeee" stroke="none" font-family="Arial" font-size="24px" font-style="normal" font-weight="normal" text-decoration="none" x="0" y="60">UNREGISTERED</text><text fill="#eeeeee" stroke="none" font-family="Arial" font-size="24px" font-style="normal" font-weight="normal" text-decoration="none" x="0" y="90">UNREGISTERED</text><text fill="#eeeeee" stroke="none" font-family="Arial" font-size="24px" font-style="normal" font-weight="normal" text-decoration="none" x="0" y="120">UNREGISTERED</text><text fill="#eeeeee" stroke="none" font-family="Arial" font-size="24px" font-style="normal" font-weight="normal" text-decoration="none" x="0" y="150">UNREGISTERED</text><text fill="#eeeeee" stroke="none" font-family="Arial" font-size="24px" font-style="normal" font-weight="normal" text-decoration="none" x="0" y="180">UNREGISTERED</text><text fill="#eeeeee" stroke="none" font-family="Arial" font-size="24px" font-style="normal" font-weight="normal" text-decoration="none" x="0" y="210">UNREGISTERED</text><text fill="#eeeeee" stroke="none" font-family="Arial" font-size="24px" font-style="normal" font-weight="normal" text-decoration="none" x="0" y="240">UNREGISTERED</text><text fill="#eeeeee" stroke="none" font-family="Arial" font-size="24px" font-style="normal" font-weight="normal" text-decoration="none" x="0" y="270">UNREGISTERED</text><text fill="#eeeeee" stroke="none" font-family="Arial" font-size="24px" font-style="normal" font-weight="normal" text-decoration="none" x="0" y="300">UNREGISTERED</text><text fill="#eeeeee" stroke="none" font-family="Arial" font-size="24px" font-style="normal" font-weight="normal" text-decoration="none" x="200" y="0">UNREGISTERED</text><text fill="#eeeeee" stroke="none" font-family="Arial" font-size="24px" font-style="normal" font-weight="normal" text-decoration="none" x="200" y="30">UNREGISTERED</text><text fill="#eeeeee" stroke="none" font-family="Arial" font-size="24px" font-style="normal" font-weight="normal" text-decoration="none" x="200" y="60">UNREGISTERED</text><text fill="#eeeeee" stroke="none" font-family="Arial" font-size="24px" font-style="normal" font-weight="normal" text-decoration="none" x="200" y="90">UNREGISTERED</text><text fill="#eeeeee" stroke="none" font-family="Arial" font-size="24px" font-style="normal" font-weight="normal" text-decoration="none" x="200" y="120">UNREGISTERED</text><text fill="#eeeeee" stroke="none" font-family="Arial" font-size="24px" font-style="normal" font-weight="normal" text-decoration="none" x="200" y="150">UNREGISTERED</text><text fill="#eeeeee" stroke="none" font-family="Arial" font-size="24px" font-style="normal" font-weight="normal" text-decoration="none" x="200" y="180">UNREGISTERED</text><text fill="#eeeeee" stroke="none" font-family="Arial" font-size="24px" font-style="normal" font-weight="normal" text-decoration="none" x="200" y="210">UNREGISTERED</text><text fill="#eeeeee" stroke="none" font-family="Arial" font-size="24px" font-style="normal" font-weight="normal" text-decoration="none" x="200" y="240">UNREGISTERED</text><text fill="#eeeeee" stroke="none" font-family="Arial" font-size="24px" font-style="normal" font-weight="normal" text-decoration="none" x="200" y="270">UNREGISTERED</text><text fill="#eeeeee" stroke="none" font-family="Arial" font-size="24px" font-style="normal" font-weight="normal" text-decoration="none" x="200" y="300">UNREGISTERED</text><text fill="#eeeeee" stroke="none" font-family="Arial" font-size="24px" font-style="normal" font-weight="normal" text-decoration="none" x="400" y="0">UNREGISTERED</text><text fill="#eeeeee" stroke="none" font-family="Arial" font-size="24px" font-style="normal" font-weight="normal" text-decoration="none" x="400" y="30">UNREGISTERED</text><text fill="#eeeeee" stroke="none" font-family="Arial" font-size="24px" font-style="normal" font-weight="normal" text-decoration="none" x="400" y="60">UNREGISTERED</text><text fill="#eeeeee" stroke="none" font-family="Arial" font-size="24px" font-style="normal" font-weight="normal" text-decoration="none" x="400" y="90">UNREGISTERED</text><text fill="#eeeeee" stroke="none" font-family="Arial" font-size="24px" font-style="normal" font-weight="normal" text-decoration="none" x="400" y="120">UNREGISTERED</text><text fill="#eeeeee" stroke="none" font-family="Arial" font-size="24px" font-style="normal" font-weight="normal" text-decoration="none" x="400" y="150">UNREGISTERED</text><text fill="#eeeeee" stroke="none" font-family="Arial" font-size="24px" font-style="normal" font-weight="normal" text-decoration="none" x="400" y="180">UNREGISTERED</text><text fill="#eeeeee" stroke="none" font-family="Arial" font-size="24px" font-style="normal" font-weight="normal" text-decoration="none" x="400" y="210">UNREGISTERED</text><text fill="#eeeeee" stroke="none" font-family="Arial" font-size="24px" font-style="normal" font-weight="normal" text-decoration="none" x="400" y="240">UNREGISTERED</text><text fill="#eeeeee" stroke="none" font-family="Arial" font-size="24px" font-style="normal" font-weight="normal" text-decoration="none" x="400" y="270">UNREGISTERED</text><text fill="#eeeeee" stroke="none" font-family="Arial" font-size="24px" font-style="normal" font-weight="normal" text-decoration="none" x="400" y="300">UNREGISTERED</text><g transform="translate(-694,-470) scale(1,1)"><rect fill="#C0C0C0" stroke="none" x="711" y="655" width="188.5498046875" height="130" opacity="0.2"/></g><g transform="translate(-694,-470) scale(1,1)"><rect fill="#ffffff" stroke="none" x="704" y="648" width="188.5498046875" height="130"/></g><g transform="translate(-694,-470) scale(1,1)"><path fill="none" stroke="#000000" d="M 704 648 L 892.5498046875 648 L 892.5498046875 778 L 704 778 L 704 648 Z Z" stroke-miterlimit="10"/></g><g transform="translate(-694,-470) scale(1,1)"><path fill="none" stroke="#000000" d="M 704 673 L 892.5498046875 673" stroke-miterlimit="10"/></g><g transform="translate(-694,-470) scale(1,1)"><path fill="none" stroke="#000000" d="M 704 726 L 892.5498046875 726" stroke-miterlimit="10"/></g><g transform="translate(-694,-470) scale(1,1)"><g><path fill="none" stroke="none"/><text fill="#000000" stroke="none" font-family="Arial" font-size="13px" font-style="normal" font-weight="bold" text-decoration="none" x="760.45556640625" y="667.5">ConsoleView</text></g></g><g transform="translate(-694,-470) scale(1,1)"><g><path fill="none" stroke="none"/><text fill="#000000" stroke="none" font-family="Arial" font-size="13px" font-style="normal" font-weight="normal" text-decoration="none" x="709" y="690.5">+_hdim: unsigned</text></g></g><g transform="translate(-694,-470) scale(1,1)"><g><path fill="none" stroke="none"/><text fill="#000000" stroke="none" font-family="Arial" font-size="13px" font-style="normal" font-weight="normal" text-decoration="none" x="709" y="705.5">+_vdim: unsigned</text></g></g><g transform="translate(-694,-470) scale(1,1)"><g><path fill="none" stroke="none"/><text fill="#000000" stroke="none" font-family="Arial" font-size="13px" font-style="normal" font-weight="normal" text-decoration="none" x="709" y="720.5">+_window: WINDOW*</text></g></g><g transform="translate(-694,-470) scale(1,1)"><g><path fill="none" stroke="none"/><text fill="#000000" stroke="none" font-family="Arial" font-size="13px" font-style="normal" font-weight="normal" text-decoration="none" x="709" y="743.5">+displayMap(const Map&amp; map)</text></g></g><g transform="translate(-694,-470) scale(1,1)"><g><path fill="none" stroke="none"/><text fill="#000000" stroke="none" font-family="Arial" font-size="13px" font-style="normal" font-weight="normal" text-decoration="none" x="709" y="758.5">+getUserInput(): UserInput</text></g></g><g transform="translate(-694,-470) scale(1,1)"><g><path fill="none" stroke="none"/><text fill="#000000" stroke="none" font-family="Arial" font-size="13px" font-style="normal" font-weight="normal" text-decoration="none" x="709" y="773.5">+update(subject: Subject)</text></g></g><g transform="translate(-694,-470) scale(1,1)"><rect fill="#C0C0C0" stroke="none" x="711" y="487" width="188.5498046875" height="72" opacity="0.2"/></g><g transform="translate(-694,-470) scale(1,1)"><rect fill="#ffffff" stroke="none" x="704" y="480" width="188.5498046875" height="72"/></g><g transform="translate(-694,-470) scale(1,1)"><path fill="none" stroke="#000000" d="M 704 480 L 892.5498046875 480 L 892.5498046875 552 L 704 552 L 704 480 Z Z" stroke-miterlimit="10"/></g><g transform="translate(-694,-470) scale(1,1)"><path fill="none" stroke="#000000" d="M 704 505 L 892.5498046875 505" stroke-miterlimit="10"/></g><g transform="translate(-694,-470) scale(1,1)"><path fill="none" stroke="#000000" d="M 704 515 L 892.5498046875 515" stroke-miterlimit="10"/></g><g transform="translate(-694,-470) scale(1,1)"><g><path fill="none" stroke="none"/><text fill="#000000" stroke="none" font-family="Arial" font-size="13px" font-style="italic" font-weight="bold" text-decoration="none" x="784.3037109375" y="499.5">View</text></g></g><g transform="translate(-694,-470) scale(1,1)"><g><path fill="none" stroke="none"/><text fill="#000000" stroke="none" font-family="Arial" font-size="13px" font-style="italic" font-weight="normal" text-decoration="none" x="709" y="532.5">+displayMap(const Map&amp; map)</text></g></g><g transform="translate(-694,-470) scale(1,1)"><g><path fill="none" stroke="none"/><text fill="#000000" stroke="none" font-family="Arial" font-size="13px" font-style="italic" font-weight="normal" text-decoration="none" x="709" y="547.5">+getUserInput(): UserInput</text></g></g><g transform="translate(-694,-470) scale(1,1)"><path fill="none" stroke="#000000" d="M 798 647 L 798 553" stroke-miterlimit="10"/></g><g transform="translate(-694,-470) scale(1,1)"><path fill="#FFFFFF" stroke="none" d="M 806.419035512032 573.3253497152483 L 798 553 L 789.580964487968 573.3253497152483"/></g><g transform="translate(-694,-470) scale(1,1)"><path fill="none" stroke="#000000" d="M 806.419035512032 573.3253497152483 L 798 553 L 789.580964487968 573.3253497152483 L 806.419035512032 573.3253497152483" stroke-miterlimit="10"/></g><g transform="translate(-694,-470) scale(1,1)"><rect fill="#C0C0C0" stroke="none" x="951" y="487" width="156.7861328125" height="72" opacity="0.2"/></g><g transform="translate(-694,-470) scale(1,1)"><rect fill="#ffffff" stroke="none" x="944" y="480" width="156.7861328125" height="72"/></g><g transform="translate(-694,-470) scale(1,1)"><path fill="none" stroke="#000000" d="M 944 480 L 1100.7861328125 480 L 1100.7861328125 552 L 944 552 L 944 480 Z Z" stroke-miterlimit="10"/></g><g transform="translate(-694,-470) scale(1,1)"><path fill="none" stroke="#000000" d="M 944 520 L 1100.7861328125 520" stroke-miterlimit="10"/></g><g transform="translate(-694,-470) scale(1,1)"><path fill="none" stroke="#000000" d="M 944 530 L 1100.7861328125 530" stroke-miterlimit="10"/></g><g transform="translate(-694,-470) scale(1,1)"><g><path fill="none" stroke="none"/><text fill="#000000" stroke="none" font-family="Arial" font-size="13px" font-style="italic" font-weight="bold" text-decoration="none" x="995.6630859375" y="499.5">Observer</text></g></g><g transform="translate(-694,-470) scale(1,1)"><g><path fill="none" stroke="none"/><text fill="#000000" stroke="none" font-family="Arial" font-size="13px" font-style="normal" font-weight="normal" text-decoration="none" x="990.619873046875" y="514.5">(from Utils)</text></g></g><g transform="translate(-694,-470) scale(1,1)"><g><path fill="none" stroke="none"/><text fill="#000000" stroke="none" font-family="Arial" font-size="13px" font-style="normal" font-weight="normal" text-decoration="none" x="949" y="547.5">+update(subject: Subject)</text></g></g><g transform="translate(-694,-470) scale(1,1)"><path fill="none" stroke="#000000" d="M 873 647 L 980 553" stroke-miterlimit="10"/></g><g transform="translate(-694,-470) scale(1,1)"><path fill="#FFFFFF" stroke="none" d="M 970.2866841443004 572.7395920699342 L 980 553 L 959.1736490801212 560.0896479011346"/></g><g transform="translate(-694,-470) scale(1,1)"><path fill="none" stroke="#000000" d="M 970.2866841443004 572.7395920699342 L 980 553 L 959.1736490801212 560.0896479011346 L 970.2866841443004 572.7395920699342" stroke-miterlimit="10"/></g></g></svg>